<?xml version="1.0" encoding="utf-8"?>
<!-- Generator: Adobe Illustrator 16.0.0, SVG Export Plug-In . SVG Version: 6.00 Build 0)  -->
<!DOCTYPE svg PUBLIC "-//W3C//DTD SVG 1.1//EN" "http://www.w3.org/Graphics/SVG/1.1/DTD/svg11.dtd">
<svg version="1.1" id="Layer_1" xmlns="http://www.w3.org/2000/svg" xmlns:xlink="http://www.w3.org/1999/xlink" x="0px" y="0px"
	 width="595.279px" height="841.89px" viewBox="0 0 595.279 841.89" enable-background="new 0 0 595.279 841.89"
	 xml:space="preserve">
<g>
	<linearGradient id="SVGID_1_" gradientUnits="userSpaceOnUse" x1="201.5637" y1="324.02" x2="425.3201" y2="547.7764">
		<stop  offset="0" style="stop-color:#FFD954"/>
		<stop  offset="1" style="stop-color:#00FFD0"/>
	</linearGradient>
	<path fill="url(#SVGID_1_)" d="M471.119,420.132c0-22.979-28.778-44.757-72.899-58.262c10.182-44.97,5.657-80.747-14.282-92.202
		c-4.596-2.687-9.97-3.959-15.839-3.959v15.768c3.253,0,5.869,0.636,8.061,1.838c9.616,5.515,13.788,26.515,10.536,53.525
		c-0.778,6.646-2.051,13.646-3.606,20.788c-13.858-3.394-28.99-6.01-44.898-7.707c-9.546-13.081-19.444-24.959-29.414-35.353
		c23.05-21.424,44.687-33.162,59.394-33.162v-15.768c-19.444,0-44.899,13.858-70.636,37.899
		c-25.737-23.899-51.192-37.616-70.637-37.616v15.768c14.637,0,36.344,11.667,59.394,32.95
		c-9.898,10.394-19.798,22.202-29.201,35.282c-15.979,1.697-31.111,4.313-44.97,7.778c-1.626-7.071-2.828-13.929-3.677-20.505
		c-3.323-27.01,0.777-48.01,10.323-53.596c2.121-1.273,4.879-1.838,8.131-1.838v-15.768c-5.939,0-11.313,1.272-15.979,3.959
		c-19.868,11.455-24.323,47.162-14.07,91.99c-43.979,13.576-72.616,35.283-72.616,58.191c0,22.979,28.777,44.758,72.898,58.262
		c-10.182,44.971-5.656,80.748,14.283,92.201c4.596,2.688,9.97,3.961,15.909,3.961c19.444,0,44.898-13.859,70.636-37.9
		c25.737,23.9,51.191,37.617,70.636,37.617c5.939,0,11.313-1.273,15.979-3.959c19.869-11.455,24.323-47.162,14.071-91.99
		C442.483,464.818,471.119,443.041,471.119,420.132L471.119,420.132z M379.059,372.971c-2.616,9.121-5.869,18.525-9.546,27.929
		c-2.898-5.657-5.939-11.313-9.263-16.97c-3.252-5.657-6.717-11.172-10.182-16.545C360.11,368.87,369.796,370.708,379.059,372.971z
		 M346.675,448.273c-5.515,9.545-11.172,18.596-17.04,27.01c-10.535,0.92-21.212,1.414-31.96,1.414
		c-10.677,0-21.354-0.494-31.817-1.344c-5.869-8.414-11.596-17.393-17.111-26.867c-5.374-9.264-10.253-18.668-14.707-28.142
		c4.384-9.475,9.333-18.95,14.637-28.212c5.515-9.545,11.171-18.596,17.04-27.01c10.535-0.919,21.212-1.414,31.959-1.414
		c10.677,0,21.354,0.495,31.818,1.343c5.868,8.414,11.596,17.394,17.111,26.869c5.373,9.263,10.252,18.667,14.707,28.142
		C356.857,429.537,351.978,439.011,346.675,448.273z M369.513,439.082c3.818,9.475,7.071,18.949,9.758,28.141
		c-9.263,2.264-19.021,4.172-29.131,5.656c3.464-5.443,6.929-11.029,10.182-16.756C363.573,450.464,366.615,444.738,369.513,439.082
		L369.513,439.082z M297.817,514.525c-6.575-6.787-13.151-14.354-19.656-22.625c6.363,0.283,12.869,0.494,19.444,0.494
		c6.646,0,13.222-0.141,19.656-0.494C310.898,500.171,304.322,507.738,297.817,514.525z M245.211,472.878
		c-10.04-1.484-19.728-3.322-28.99-5.586c2.616-9.121,5.869-18.523,9.546-27.928c2.898,5.656,5.939,11.313,9.263,16.969
		S241.746,467.505,245.211,472.878z M297.463,325.738c6.576,6.788,13.151,14.354,19.656,22.626
		c-6.363-0.283-12.868-0.495-19.444-0.495c-6.646,0-13.222,0.142-19.656,0.495C284.383,340.092,290.958,332.526,297.463,325.738z
		 M245.14,367.385c-3.464,5.444-6.929,11.03-10.182,16.757c-3.252,5.657-6.293,11.313-9.191,16.97
		c-3.818-9.475-7.071-18.949-9.758-28.141C225.272,370.779,235.03,368.87,245.14,367.385L245.14,367.385z M181.151,455.91
		c-25.03-10.678-41.222-24.676-41.222-35.778c0-11.101,16.191-25.171,41.222-35.777c6.081-2.616,12.728-4.95,19.586-7.142
		c4.03,13.858,9.333,28.283,15.909,43.061c-6.505,14.707-11.737,29.06-15.697,42.849
		C193.948,460.929,187.302,458.525,181.151,455.91z M219.191,556.949c-9.616-5.514-13.787-26.514-10.535-53.523
		c0.778-6.646,2.051-13.646,3.606-20.789c13.858,3.395,28.989,6.01,44.898,7.707c9.546,13.082,19.444,24.961,29.414,35.354
		c-23.051,21.424-44.687,33.162-59.394,33.162C223.999,558.789,221.312,558.152,219.191,556.949L219.191,556.949z M386.907,503.072
		c3.323,27.01-0.778,48.01-10.323,53.596c-2.121,1.271-4.879,1.838-8.132,1.838c-14.636,0-36.343-11.666-59.394-32.949
		c9.899-10.395,19.798-22.203,29.202-35.283c15.979-1.697,31.111-4.313,44.97-7.777
		C384.857,489.636,386.129,496.496,386.907,503.072z M414.129,455.91c-6.081,2.615-12.728,4.949-19.586,7.141
		c-4.03-13.857-9.333-28.281-15.909-43.06c6.506-14.707,11.737-29.061,15.697-42.849c7,2.192,13.646,4.596,19.869,7.212
		c25.029,10.677,41.222,24.676,41.222,35.777C455.352,431.234,439.159,445.304,414.129,455.91L414.129,455.91z"/>
	<linearGradient id="SVGID_2_" gradientUnits="userSpaceOnUse" x1="201.5286" y1="324.0552" x2="425.285" y2="547.8116">
		<stop  offset="0" style="stop-color:#FFD954"/>
		<stop  offset="1" style="stop-color:#00FFD0"/>
	</linearGradient>
	<circle fill="url(#SVGID_2_)" cx="297.605" cy="420.132" r="32.313"/>
	<linearGradient id="SVGID_3_" gradientUnits="userSpaceOnUse" x1="368.0295" y1="265.709" x2="368.0295" y2="265.709">
		<stop  offset="0" style="stop-color:#FFD954"/>
		<stop  offset="1" style="stop-color:#00FFD0"/>
	</linearGradient>
	<path fill="url(#SVGID_3_)" d="M368.029,265.708"/>
</g>
</svg>
